<?xml version="1.0" standalone="no"?>
<!DOCTYPE svg PUBLIC "-//W3C//DTD SVG 20010904//EN"
 "http://www.w3.org/TR/2001/REC-SVG-20010904/DTD/svg10.dtd">
<svg version="1.0" xmlns="http://www.w3.org/2000/svg"
 width="500.000000pt" height="500.000000pt" viewBox="0 0 500.000000 500.000000"
 preserveAspectRatio="xMidYMid meet">

<g transform="translate(0.000000,500.000000) scale(0.100000,-0.100000)"
fill="#000000" stroke="none">
<path d="M2340 4524 c-935 -86 -1678 -768 -1841 -1690 -33 -184 -33 -473 0
-659 109 -620 476 -1142 1021 -1451 184 -104 416 -185 645 -225 156 -27 450
-32 605 -10 442 63 841 262 1155 576 391 390 597 880 599 1420 1 484 -155 924
-460 1301 -305 375 -746 629 -1241 714 -114 20 -382 33 -483 24z m107 -577 c5
-7 144 -390 308 -852 164 -462 353 -996 421 -1188 68 -191 124 -350 124 -355
0 -4 -122 -7 -270 -7 -149 0 -270 0 -270 1 0 5 -171 559 -174 561 -2 2 -198 3
-437 3 -340 0 -434 -2 -440 -12 -4 -7 -43 -132 -87 -277 -45 -145 -82 -265
-84 -267 -2 -1 -125 -4 -273 -4 -238 -2 -270 0 -267 14 2 13 106 310 684 1951
77 220 144 410 149 423 l9 22 299 0 c220 -1 302 -4 308 -13z m1273 -187 l0
-190 -447 2 -446 3 -63 175 c-35 96 -63 181 -64 188 0 9 108 12 510 12 l510 0
0 -190z m-190 -685 l0 -165 -234 0 -234 0 -56 159 c-31 88 -56 162 -56 165 0
3 131 6 290 6 l290 0 0 -165z"/>
<path d="M2090 3373 c-29 -104 -98 -332 -152 -508 -54 -175 -98 -320 -98 -322
0 -2 140 -3 310 -3 194 0 310 4 310 10 0 5 -33 116 -74 247 -145 466 -216 698
-222 731 -4 17 -9 32 -13 32 -4 0 -31 -84 -61 -187z"/>
</g>
</svg>
